# xmcd CD database file
#
# Track frame offsets:
#	150
#	21477
#	31920
#	50132
#
# Disc length: 1001 seconds
#
# Revision: 0
# Processed by: cddbd v1.5.1PL0 Copyright (c) Steve Scherf et al.
# Submitted via: CDex 1.51
#
DISCID=3103e704
DTITLE=Lita - 天の川 〜ティンガーラ〜
DYEAR=2003
DGENRE=JPop
TTITLE0=天の川 〜ティンガーラ〜
TTITLE1=ミルク
TTITLE2=花園はいつも開いている
TTITLE3=永遠。
EXTD=YEAR: 2003
EXTT0=
EXTT1=
EXTT2=
EXTT3=
PLAYORDER=
